<mxfile host="app.diagrams.net" modified="2020-09-30T07:14:49.521Z" agent="5.0 (Windows NT 10.0; WOW64) AppleWebKit/537.36 (KHTML, like Gecko) Chrome/69.0.3497.100 Safari/537.36" etag="fUsU69A5uuAKUi6l3mAK" version="13.7.6" type="github">
  <diagram id="C5RBs43oDa-KdzZeNtuy" name="Page-1">
    <mxGraphModel dx="1673" dy="809" grid="1" gridSize="10" guides="1" tooltips="1" connect="1" arrows="1" fold="1" page="1" pageScale="1" pageWidth="827" pageHeight="1169" math="0" shadow="0">
      <root>
        <mxCell id="WIyWlLk6GJQsqaUBKTNV-0" />
        <mxCell id="WIyWlLk6GJQsqaUBKTNV-1" parent="WIyWlLk6GJQsqaUBKTNV-0" />
        <mxCell id="WIyWlLk6GJQsqaUBKTNV-2" value="" style="rounded=0;html=1;jettySize=auto;orthogonalLoop=1;fontSize=11;endArrow=block;endFill=0;endSize=8;strokeWidth=1;shadow=0;labelBackgroundColor=none;edgeStyle=orthogonalEdgeStyle;" parent="WIyWlLk6GJQsqaUBKTNV-1" source="WIyWlLk6GJQsqaUBKTNV-3" edge="1">
          <mxGeometry relative="1" as="geometry">
            <mxPoint x="220" y="170" as="targetPoint" />
          </mxGeometry>
        </mxCell>
        <mxCell id="WIyWlLk6GJQsqaUBKTNV-3" value="输入图片" style="rounded=1;whiteSpace=wrap;html=1;fontSize=12;glass=0;strokeWidth=3;shadow=0;" parent="WIyWlLk6GJQsqaUBKTNV-1" vertex="1">
          <mxGeometry x="160" y="80" width="120" height="40" as="geometry" />
        </mxCell>
        <mxCell id="svYZ8ogztypZdfJ2Gajn-1" value="压缩图片" style="rounded=1;whiteSpace=wrap;html=1;fontSize=12;glass=0;strokeWidth=3;shadow=0;" vertex="1" parent="WIyWlLk6GJQsqaUBKTNV-1">
          <mxGeometry x="160" y="170" width="120" height="40" as="geometry" />
        </mxCell>
        <mxCell id="svYZ8ogztypZdfJ2Gajn-2" value="输入图片" style="rounded=1;whiteSpace=wrap;html=1;fontSize=12;glass=0;strokeWidth=3;shadow=0;" vertex="1" parent="WIyWlLk6GJQsqaUBKTNV-1">
          <mxGeometry x="160" y="80" width="120" height="40" as="geometry" />
        </mxCell>
        <mxCell id="svYZ8ogztypZdfJ2Gajn-3" value="" style="rounded=0;html=1;jettySize=auto;orthogonalLoop=1;fontSize=11;endArrow=block;endFill=0;endSize=8;strokeWidth=1;shadow=0;labelBackgroundColor=none;edgeStyle=orthogonalEdgeStyle;" edge="1" parent="WIyWlLk6GJQsqaUBKTNV-1" source="svYZ8ogztypZdfJ2Gajn-4">
          <mxGeometry relative="1" as="geometry">
            <mxPoint x="220" y="350" as="targetPoint" />
          </mxGeometry>
        </mxCell>
        <mxCell id="svYZ8ogztypZdfJ2Gajn-4" value="输入图片" style="rounded=1;whiteSpace=wrap;html=1;fontSize=12;glass=0;strokeWidth=3;shadow=0;" vertex="1" parent="WIyWlLk6GJQsqaUBKTNV-1">
          <mxGeometry x="160" y="260" width="120" height="40" as="geometry" />
        </mxCell>
        <mxCell id="svYZ8ogztypZdfJ2Gajn-5" value="边缘检测" style="rounded=1;whiteSpace=wrap;html=1;fontSize=12;glass=0;strokeWidth=3;shadow=0;" vertex="1" parent="WIyWlLk6GJQsqaUBKTNV-1">
          <mxGeometry x="160" y="350" width="120" height="40" as="geometry" />
        </mxCell>
        <mxCell id="svYZ8ogztypZdfJ2Gajn-6" value="转为灰度图" style="rounded=1;whiteSpace=wrap;html=1;fontSize=12;glass=0;strokeWidth=3;shadow=0;" vertex="1" parent="WIyWlLk6GJQsqaUBKTNV-1">
          <mxGeometry x="160" y="260" width="120" height="40" as="geometry" />
        </mxCell>
        <mxCell id="svYZ8ogztypZdfJ2Gajn-7" value="" style="rounded=0;html=1;jettySize=auto;orthogonalLoop=1;fontSize=11;endArrow=block;endFill=0;endSize=8;strokeWidth=1;shadow=0;labelBackgroundColor=none;edgeStyle=orthogonalEdgeStyle;" edge="1" parent="WIyWlLk6GJQsqaUBKTNV-1" source="svYZ8ogztypZdfJ2Gajn-8">
          <mxGeometry relative="1" as="geometry">
            <mxPoint x="220" y="710" as="targetPoint" />
          </mxGeometry>
        </mxCell>
        <mxCell id="svYZ8ogztypZdfJ2Gajn-8" value="输入图片" style="rounded=1;whiteSpace=wrap;html=1;fontSize=12;glass=0;strokeWidth=3;shadow=0;" vertex="1" parent="WIyWlLk6GJQsqaUBKTNV-1">
          <mxGeometry x="160" y="620" width="120" height="40" as="geometry" />
        </mxCell>
        <mxCell id="svYZ8ogztypZdfJ2Gajn-9" value="闭运算保持目标物连通" style="rounded=1;whiteSpace=wrap;html=1;fontSize=12;glass=0;strokeWidth=3;shadow=0;" vertex="1" parent="WIyWlLk6GJQsqaUBKTNV-1">
          <mxGeometry x="160" y="710" width="120" height="40" as="geometry" />
        </mxCell>
        <mxCell id="svYZ8ogztypZdfJ2Gajn-10" value="开运算去噪点" style="rounded=1;whiteSpace=wrap;html=1;fontSize=12;glass=0;strokeWidth=3;shadow=0;" vertex="1" parent="WIyWlLk6GJQsqaUBKTNV-1">
          <mxGeometry x="160" y="620" width="120" height="40" as="geometry" />
        </mxCell>
        <mxCell id="svYZ8ogztypZdfJ2Gajn-11" value="" style="rounded=0;html=1;jettySize=auto;orthogonalLoop=1;fontSize=11;endArrow=block;endFill=0;endSize=8;strokeWidth=1;shadow=0;labelBackgroundColor=none;edgeStyle=orthogonalEdgeStyle;" edge="1" parent="WIyWlLk6GJQsqaUBKTNV-1" source="svYZ8ogztypZdfJ2Gajn-12">
          <mxGeometry relative="1" as="geometry">
            <mxPoint x="220" y="890" as="targetPoint" />
          </mxGeometry>
        </mxCell>
        <mxCell id="svYZ8ogztypZdfJ2Gajn-12" value="输入图片" style="rounded=1;whiteSpace=wrap;html=1;fontSize=12;glass=0;strokeWidth=3;shadow=0;" vertex="1" parent="WIyWlLk6GJQsqaUBKTNV-1">
          <mxGeometry x="160" y="800" width="120" height="40" as="geometry" />
        </mxCell>
        <mxCell id="svYZ8ogztypZdfJ2Gajn-13" value="找出最大周长连通域" style="rounded=1;whiteSpace=wrap;html=1;fontSize=12;glass=0;strokeWidth=3;shadow=0;" vertex="1" parent="WIyWlLk6GJQsqaUBKTNV-1">
          <mxGeometry x="160" y="890" width="120" height="40" as="geometry" />
        </mxCell>
        <mxCell id="svYZ8ogztypZdfJ2Gajn-14" value="连通域标记" style="rounded=1;whiteSpace=wrap;html=1;fontSize=12;glass=0;strokeWidth=3;shadow=0;" vertex="1" parent="WIyWlLk6GJQsqaUBKTNV-1">
          <mxGeometry x="160" y="800" width="120" height="40" as="geometry" />
        </mxCell>
        <mxCell id="svYZ8ogztypZdfJ2Gajn-15" value="" style="rounded=0;html=1;jettySize=auto;orthogonalLoop=1;fontSize=11;endArrow=block;endFill=0;endSize=8;strokeWidth=1;shadow=0;labelBackgroundColor=none;edgeStyle=orthogonalEdgeStyle;" edge="1" parent="WIyWlLk6GJQsqaUBKTNV-1" source="svYZ8ogztypZdfJ2Gajn-16">
          <mxGeometry relative="1" as="geometry">
            <mxPoint x="220" y="530" as="targetPoint" />
          </mxGeometry>
        </mxCell>
        <mxCell id="svYZ8ogztypZdfJ2Gajn-16" value="输入图片" style="rounded=1;whiteSpace=wrap;html=1;fontSize=12;glass=0;strokeWidth=3;shadow=0;" vertex="1" parent="WIyWlLk6GJQsqaUBKTNV-1">
          <mxGeometry x="160" y="440" width="120" height="40" as="geometry" />
        </mxCell>
        <mxCell id="svYZ8ogztypZdfJ2Gajn-17" value="二值化" style="rounded=1;whiteSpace=wrap;html=1;fontSize=12;glass=0;strokeWidth=3;shadow=0;" vertex="1" parent="WIyWlLk6GJQsqaUBKTNV-1">
          <mxGeometry x="160" y="530" width="120" height="40" as="geometry" />
        </mxCell>
        <mxCell id="svYZ8ogztypZdfJ2Gajn-18" value="图像增强" style="rounded=1;whiteSpace=wrap;html=1;fontSize=12;glass=0;strokeWidth=3;shadow=0;" vertex="1" parent="WIyWlLk6GJQsqaUBKTNV-1">
          <mxGeometry x="160" y="440" width="120" height="40" as="geometry" />
        </mxCell>
        <mxCell id="svYZ8ogztypZdfJ2Gajn-19" value="" style="rounded=0;html=1;jettySize=auto;orthogonalLoop=1;fontSize=11;endArrow=block;endFill=0;endSize=8;strokeWidth=1;shadow=0;labelBackgroundColor=none;edgeStyle=orthogonalEdgeStyle;" edge="1" parent="WIyWlLk6GJQsqaUBKTNV-1">
          <mxGeometry relative="1" as="geometry">
            <mxPoint x="219.5" y="260" as="targetPoint" />
            <mxPoint x="219.5" y="210" as="sourcePoint" />
          </mxGeometry>
        </mxCell>
        <mxCell id="svYZ8ogztypZdfJ2Gajn-20" value="" style="rounded=0;html=1;jettySize=auto;orthogonalLoop=1;fontSize=11;endArrow=block;endFill=0;endSize=8;strokeWidth=1;shadow=0;labelBackgroundColor=none;edgeStyle=orthogonalEdgeStyle;" edge="1" parent="WIyWlLk6GJQsqaUBKTNV-1">
          <mxGeometry relative="1" as="geometry">
            <mxPoint x="219.5" y="440" as="targetPoint" />
            <mxPoint x="219.5" y="390" as="sourcePoint" />
          </mxGeometry>
        </mxCell>
        <mxCell id="svYZ8ogztypZdfJ2Gajn-22" value="" style="rounded=0;html=1;jettySize=auto;orthogonalLoop=1;fontSize=11;endArrow=block;endFill=0;endSize=8;strokeWidth=1;shadow=0;labelBackgroundColor=none;edgeStyle=orthogonalEdgeStyle;" edge="1" parent="WIyWlLk6GJQsqaUBKTNV-1">
          <mxGeometry relative="1" as="geometry">
            <mxPoint x="219.5" y="620" as="targetPoint" />
            <mxPoint x="219.5" y="570" as="sourcePoint" />
          </mxGeometry>
        </mxCell>
        <mxCell id="svYZ8ogztypZdfJ2Gajn-23" value="" style="rounded=0;html=1;jettySize=auto;orthogonalLoop=1;fontSize=11;endArrow=block;endFill=0;endSize=8;strokeWidth=1;shadow=0;labelBackgroundColor=none;edgeStyle=orthogonalEdgeStyle;" edge="1" parent="WIyWlLk6GJQsqaUBKTNV-1">
          <mxGeometry relative="1" as="geometry">
            <mxPoint x="219.41" y="799.9999999999998" as="targetPoint" />
            <mxPoint x="219.41" y="749.9999999999998" as="sourcePoint" />
          </mxGeometry>
        </mxCell>
        <mxCell id="svYZ8ogztypZdfJ2Gajn-24" value="" style="rounded=0;html=1;jettySize=auto;orthogonalLoop=1;fontSize=11;endArrow=block;endFill=0;endSize=8;strokeWidth=1;shadow=0;labelBackgroundColor=none;edgeStyle=orthogonalEdgeStyle;" edge="1" parent="WIyWlLk6GJQsqaUBKTNV-1" source="svYZ8ogztypZdfJ2Gajn-25">
          <mxGeometry relative="1" as="geometry">
            <mxPoint x="220" y="1069.9999999999998" as="targetPoint" />
          </mxGeometry>
        </mxCell>
        <mxCell id="svYZ8ogztypZdfJ2Gajn-25" value="输入图片" style="rounded=1;whiteSpace=wrap;html=1;fontSize=12;glass=0;strokeWidth=3;shadow=0;" vertex="1" parent="WIyWlLk6GJQsqaUBKTNV-1">
          <mxGeometry x="160" y="980" width="120" height="40" as="geometry" />
        </mxCell>
        <mxCell id="svYZ8ogztypZdfJ2Gajn-26" value="返回矩形位置参数" style="rounded=1;whiteSpace=wrap;html=1;fontSize=12;glass=0;strokeWidth=3;shadow=0;" vertex="1" parent="WIyWlLk6GJQsqaUBKTNV-1">
          <mxGeometry x="160" y="1070" width="120" height="40" as="geometry" />
        </mxCell>
        <mxCell id="svYZ8ogztypZdfJ2Gajn-27" value="画出矩形框" style="rounded=1;whiteSpace=wrap;html=1;fontSize=12;glass=0;strokeWidth=3;shadow=0;" vertex="1" parent="WIyWlLk6GJQsqaUBKTNV-1">
          <mxGeometry x="160" y="980" width="120" height="40" as="geometry" />
        </mxCell>
        <mxCell id="svYZ8ogztypZdfJ2Gajn-28" value="" style="rounded=0;html=1;jettySize=auto;orthogonalLoop=1;fontSize=11;endArrow=block;endFill=0;endSize=8;strokeWidth=1;shadow=0;labelBackgroundColor=none;edgeStyle=orthogonalEdgeStyle;" edge="1" parent="WIyWlLk6GJQsqaUBKTNV-1">
          <mxGeometry relative="1" as="geometry">
            <mxPoint x="219.41000000000008" y="979.9999999999998" as="targetPoint" />
            <mxPoint x="219.41000000000008" y="929.9999999999998" as="sourcePoint" />
          </mxGeometry>
        </mxCell>
        <mxCell id="svYZ8ogztypZdfJ2Gajn-29" value="" style="endArrow=classic;html=1;" edge="1" parent="WIyWlLk6GJQsqaUBKTNV-1">
          <mxGeometry width="50" height="50" relative="1" as="geometry">
            <mxPoint x="220" y="140" as="sourcePoint" />
            <mxPoint x="220" y="950" as="targetPoint" />
            <Array as="points">
              <mxPoint x="90" y="140" />
              <mxPoint x="90" y="950" />
            </Array>
          </mxGeometry>
        </mxCell>
      </root>
    </mxGraphModel>
  </diagram>
</mxfile>
